<svg width="104" height="120" viewBox="0 0 104 120" fill="none" xmlns="http://www.w3.org/2000/svg">
<path d="M104 30.4517V72.8234C104 89.6407 90.2794 103.275 73.3559 103.275H70.2563L54.428 118.994C53.8081 119.61 52.9505 120 52 120C51.1218 120 50.3262 119.682 49.7167 119.148L49.448 118.881L49.4377 118.871L33.7437 103.275H30.6338C13.7206 103.275 0 89.6407 0 72.8234V30.4517C0 13.6345 13.7206 0 30.6441 0H73.3559C90.2794 0 104 13.6345 104 30.4517Z" fill="#FFD666"/>
<path d="M24.2145 58.6982C21.1975 58.6982 19.478 62.1144 21.2284 64.5811C28.0345 74.1898 39.2888 80.4545 52.0052 80.4545C64.7216 80.4545 75.9656 74.1795 82.7717 64.5811C84.5221 62.1144 82.8026 58.6982 79.7856 58.6982H24.2145Z" fill="white"/>
<path d="M41.8835 44.1562H23.679V35.0327C23.679 29.9961 27.7564 25.9091 32.7812 25.9091C37.806 25.9091 41.8835 29.9961 41.8835 35.0327V44.1562Z" fill="white"/>
<path d="M80.3312 44.1562H62.1267V35.0327C62.1267 29.9961 66.2042 25.9091 71.229 25.9091C76.2538 25.9091 80.3312 29.9961 80.3312 35.0327V44.1562Z" fill="white"/>
</svg>
